<?xml version="1.0" encoding="UTF-8" standalone="no"?>
<!-- Created with Inkscape (http://www.inkscape.org/) -->

<svg
   width="800mm"
   height="800mm"
   viewBox="0 0 800 800"
   version="1.1"
   id="svg1"
   inkscape:version="1.4.2 (f4327f4, 2025-05-13)"
   sodipodi:docname="SynthLauncher-v7.svg"
   inkscape:export-filename="drawing1.png"
   inkscape:export-xdpi="96"
   inkscape:export-ydpi="96"
   xmlns:inkscape="http://www.inkscape.org/namespaces/inkscape"
   xmlns:sodipodi="http://sodipodi.sourceforge.net/DTD/sodipodi-0.dtd"
   xmlns="http://www.w3.org/2000/svg"
   xmlns:svg="http://www.w3.org/2000/svg">
  <sodipodi:namedview
     id="namedview1"
     pagecolor="#505050"
     bordercolor="#eeeeee"
     borderopacity="1"
     inkscape:showpageshadow="0"
     inkscape:pageopacity="0"
     inkscape:pagecheckerboard="true"
     inkscape:deskcolor="#505050"
     inkscape:document-units="mm"
     inkscape:zoom="0.26137515"
     inkscape:cx="1524.6285"
     inkscape:cy="1191.7736"
     inkscape:window-width="1920"
     inkscape:window-height="1051"
     inkscape:window-x="-9"
     inkscape:window-y="-9"
     inkscape:window-maximized="1"
     inkscape:current-layer="layer1" />
  <defs
     id="defs1">
    <rect
       x="1264"
       y="1224"
       width="860"
       height="668"
       id="rect159" />
  </defs>
  <g
     inkscape:label="Layer 1"
     inkscape:groupmode="layer"
     id="layer1"
     style="display:inline">
    <path
       sodipodi:type="star"
       style="display:inline;fill:#262626;fill-opacity:1;stroke-width:0.264583"
       id="path97"
       inkscape:flatsided="true"
       sodipodi:sides="6"
       sodipodi:cx="396.47537"
       sodipodi:cy="400.75391"
       sodipodi:r1="238.20889"
       sodipodi:r2="206.29495"
       sodipodi:arg1="1.3089969"
       sodipodi:arg2="1.8325957"
       inkscape:rounded="0.05"
       inkscape:randomized="0"
       d="M 458.12838,630.84603 C 446.62377,633.92868 236.45821,577.61499 228.03626,569.19304 219.6143,560.77108 163.3006,350.60552 166.38325,339.10092 169.4659,327.59631 323.31776,173.74444 334.82237,170.66179 c 11.5046,-3.08265 221.67016,53.23103 230.09212,61.65299 8.42196,8.42195 64.73566,218.58751 61.65301,230.09212 -3.08265,11.5046 -156.93451,165.35648 -168.43912,168.43913 z"
       transform="translate(3.5246277,-0.75390625)" />
    <path
       id="path32"
       style="display:inline;fill:#6132dc;stroke:#d30000;stroke-width:16;stroke-dasharray:16, 16;stroke-opacity:0;fill-opacity:1"
       d="M 439.82464,371.39186 484.39697,537.73808 362.62309,659.51196 196.27687,614.93963 151.70453,448.59341 273.47842,326.81952 Z"
       transform="translate(81.240613,-92.564914)" />
    <path
       id="path32-5"
       style="display:inline;fill:#5124c1;fill-opacity:1;stroke:#d30000;stroke-width:16;stroke-dasharray:16, 16;stroke-opacity:0"
       d="m 439.82464,371.39186 44.57233,166.34622 -121.77388,121.77388 v 0 l -43.8637,-166.94705 z"
       sodipodi:nodetypes="ccccccc"
       transform="translate(81.240613,-92.564914)" />
    <path
       id="path32-6"
       style="display:inline;fill:#7048e5;fill-opacity:1;stroke:#ca0000;stroke-width:16;stroke-dasharray:16, 16;stroke-opacity:0"
       d="M 439.82464,371.39186 318.75939,492.56491 v 0 0 L 151.70453,448.59341 273.47842,326.81952 Z"
       sodipodi:nodetypes="ccccccc"
       transform="translate(81.240613,-92.564914)" />
    <path
       id="path32-3"
       style="display:inline;fill:#8461eb;stroke:#d30000;stroke-width:16;stroke-dasharray:16, 16;stroke-opacity:0;fill-opacity:1"
       d="m 151.70453,448.59341 210.91856,210.91855 m 0,0 -166.34622,-44.57233 m 0,0 -44.57234,-166.34622 m 0,0 121.77389,-121.77389 166.34622,44.57234 -288.12011,77.20155"
       sodipodi:nodetypes="cccccccccc"
       transform="translate(81.240613,-92.564914)" />
    <path
       id="path32-66"
       style="display:inline;fill:#8461eb;fill-opacity:1;stroke:#d30000;stroke-width:16;stroke-dasharray:16, 16;stroke-opacity:0"
       d="m 439.82464,371.39186 44.57233,166.34622 m 0,0 L 362.62309,659.51196 196.27687,614.93963 151.70453,448.59341 362.62309,659.51196 m 0,0 77.20155,-288.1201"
       sodipodi:nodetypes="ccccccccc"
       transform="translate(81.240613,-92.564914)" />
    <path
       id="path32-63"
       style="display:inline;fill:#8461eb;fill-opacity:1;stroke:#d30000;stroke-width:16;stroke-dasharray:16, 16;stroke-opacity:0"
       d="M 439.82464,371.39186 484.39697,537.73808 362.62309,659.51196 Z"
       sodipodi:nodetypes="cccc"
       transform="translate(81.240613,-92.564914)" />
  </g>
</svg>
